<svg width="310" height="340" viewBox="0 0 310 340" fill="none" xmlns="http://www.w3.org/2000/svg">
<path d="M77.7704 327.308H233.23C224.654 330.344 215.249 332 205.568 332H105.432C95.7505 332 86.3455 330.344 77.7704 327.308ZM62.9713 320.271H248.029C250.795 318.615 253.561 316.683 256.189 314.751H54.8111C57.4389 316.821 60.2051 318.615 62.9713 320.271ZM27.7025 277.218C28.5324 279.564 29.5005 281.91 30.607 284.256H280.393C281.499 281.91 282.468 279.702 283.297 277.218H27.7025ZM287.308 260.245C287.723 256.796 288 253.346 288 249.896V8H23V249.758C23 253.346 23.2766 256.796 23.6915 260.107H287.308V260.245ZM24.3831 264.799C24.798 267.283 25.4896 269.905 26.1811 272.25H284.957C285.649 269.767 286.202 267.283 286.755 264.799H24.3831ZM41.9483 302.194C43.7463 304.264 45.5444 306.334 47.4807 308.266H263.381C265.317 306.334 267.254 304.402 268.913 302.194H41.9483ZM33.3732 289.775C34.618 291.983 36.001 294.191 37.3841 296.261H273.478C274.861 294.191 276.244 291.983 277.489 289.775H33.3732Z" fill="$secondary-250"/>
<path d="M74.6798 20.7003C72.0333 19.0961 68.5663 19.9802 66.9679 22.6274C65.3641 25.2745 66.211 28.7211 68.8575 30.32C71.504 31.9241 74.9815 31.0982 76.5852 28.4511C78.189 25.8039 77.3263 22.3044 74.6798 20.7003Z" fill="#D6DCE8"/>
<path d="M86.6085 13.7911C84.9254 12.7693 82.7182 13.3305 81.6966 15.0141C80.6751 16.6977 81.215 18.8895 82.8981 19.9113C84.5813 20.9331 86.7991 20.409 87.8153 18.7201C88.8316 17.0312 88.2864 14.8076 86.6033 13.7858L86.6085 13.7911Z" fill="#D6DCE8"/>
<path d="M272.75 199.642C270.781 199.557 269.119 201.109 269.035 203.078C268.95 205.047 270.474 206.71 272.443 206.795C274.412 206.879 276.101 205.355 276.185 203.385C276.27 201.416 274.719 199.727 272.75 199.642Z" fill="#D6DCE8"/>
<path d="M240.92 59.6235H71.3264C61.2266 59.6235 53.0391 67.813 53.0391 77.9153V185.643C53.0391 195.746 61.2266 203.935 71.3264 203.935H240.92C251.019 203.935 259.207 195.746 259.207 185.643V77.9153C259.207 67.813 251.019 59.6235 240.92 59.6235Z" fill="url(#paint0_linear_13939_75375)"/>
<path d="M245.737 172.561V77.9155C245.737 75.2631 243.577 73.103 240.925 73.103H71.327C68.6752 73.103 66.5156 75.2631 66.5156 77.9155V172.567H245.737V172.561Z" fill="#F9FAFD"/>
<path d="M136.052 119.211L124.08 107.235C122.973 106.129 122.973 104.334 124.08 103.227C125.186 102.121 126.98 102.121 128.086 103.227L140.059 115.203C141.166 116.31 141.166 118.104 140.059 119.211C138.953 120.317 137.159 120.317 136.052 119.211Z" fill="#9AA1B2"/>
<path d="M124.08 119.211C122.973 118.104 122.973 116.31 124.08 115.203L136.052 103.227C137.159 102.121 138.953 102.121 140.059 103.227C141.166 104.334 141.166 106.129 140.059 107.235L128.086 119.211C126.98 120.317 125.186 120.317 124.08 119.211Z" fill="#9AA1B2"/>
<path d="M184.17 119.211L172.197 107.235C171.091 106.129 171.091 104.334 172.197 103.227C173.303 102.121 175.097 102.121 176.204 103.227L188.176 115.203C189.283 116.31 189.283 118.104 188.176 119.211C187.07 120.317 185.276 120.317 184.17 119.211Z" fill="#9AA1B2"/>
<path d="M172.197 119.211C171.091 118.104 171.091 116.31 172.197 115.203L184.17 103.227C185.276 102.121 187.07 102.121 188.176 103.227C189.283 104.334 189.283 106.129 188.176 107.235L176.204 119.211C175.097 120.317 173.303 120.317 172.197 119.211Z" fill="#9AA1B2"/>
<path d="M168.239 142.437C161.565 135.761 150.698 135.761 144.024 142.437C142.918 143.543 141.123 143.543 140.017 142.437C138.911 141.33 138.911 139.536 140.017 138.429C148.904 129.54 163.365 129.545 172.246 138.429C173.353 139.536 173.353 141.33 172.246 142.437C171.14 143.543 169.346 143.543 168.239 142.437Z" fill="#9AA1B2"/>
<path d="M53.8842 63.0966C53.3972 63.0966 52.905 62.906 52.5397 62.5301L42.7053 52.5134C41.9749 51.7669 41.9855 50.5757 42.7265 49.8397C43.4728 49.1091 44.669 49.1197 45.3995 49.8609L55.2339 59.8777C55.9643 60.6242 55.9537 61.8154 55.2127 62.5513C54.8422 62.9113 54.3658 63.0913 53.8895 63.0913L53.8842 63.0966Z" fill="#989FB0"/>
<path d="M63.2568 59.3059H63.2409C62.1982 59.2953 61.3619 58.443 61.3672 57.4L61.4942 43.3596C61.4995 42.3166 62.3358 41.4801 63.3997 41.4854C64.4424 41.496 65.2787 42.3483 65.2734 43.3913L65.1464 57.4318C65.1358 58.4694 64.2942 59.3059 63.2568 59.3059Z" fill="#989FB0"/>
<path d="M49.9267 72.4091H49.9108L35.8737 72.2821C34.831 72.2715 33.9947 71.4191 34 70.3761C34.0106 69.3332 34.9422 68.5284 35.9055 68.502L49.9426 68.629C50.9853 68.6396 51.8216 69.492 51.8163 70.535C51.8057 71.5726 50.9641 72.4091 49.9267 72.4091Z" fill="#989FB0"/>
<path d="M205.564 90.8442L203.494 101.745C203.071 103.969 205.177 105.832 207.331 105.149L219.246 101.359C224.952 103.985 231.404 105.234 238.211 104.71C256.784 103.27 271.853 88.2447 273.341 69.6723C275.241 45.9698 255.561 26.3439 231.849 28.3346C213.455 29.8805 198.55 44.7574 196.994 63.1551C196.1 73.7172 199.466 83.4481 205.564 90.8495V90.8442Z" fill="url(#paint1_linear_13939_75375)"/>
<path d="M208.695 65.7867C208.695 80.4095 220.53 92.2475 235.15 92.2475C249.769 92.2475 261.625 80.4095 261.625 65.7867C261.625 51.1639 249.769 39.3047 235.15 39.3047C220.53 39.3047 208.695 51.1639 208.695 65.7867Z" fill="url(#paint2_linear_13939_75375)"/>
<path d="M241.035 53.4881L238.965 66.6814C238.669 68.5609 237.054 69.9427 235.154 69.9427C233.254 69.9427 231.634 68.5609 231.343 66.6814L229.274 53.4881C228.908 51.148 230.719 49.0303 233.085 49.0303H237.224C239.595 49.0303 241.4 51.148 241.035 53.4881Z" fill="url(#paint3_linear_13939_75375)"/>
<path d="M239.111 78.4981V78.5722C239.111 80.7588 237.333 82.5218 235.147 82.5218C234.056 82.5218 233.067 82.0718 232.352 81.3676C231.632 80.6476 231.188 79.6629 231.188 78.5722V78.4981C231.188 76.301 232.966 74.5327 235.152 74.5327C236.242 74.5327 237.232 74.9827 237.947 75.6869C238.667 76.4069 239.111 77.4075 239.111 78.4981Z" fill="url(#paint4_linear_13939_75375)"/>
<path d="M40.3278 194.21C37.2367 194.077 34.6219 196.518 34.4896 199.61C34.3573 202.702 36.755 205.317 39.8461 205.449C42.9372 205.582 45.589 203.184 45.7266 200.097C45.859 197.005 43.4242 194.347 40.3331 194.215L40.3278 194.21Z" fill="#D6DCE8"/>
<path d="M145.283 46.388C144.045 47.2245 142.361 46.8962 141.53 45.6521L140.424 44.0109C138.656 41.3849 138.646 37.9807 140.398 35.3282C141.663 33.4117 141.605 30.8757 140.25 29.0174C138.588 26.7409 135.285 26.095 132.887 27.5827C131.595 28.398 130.706 29.6422 130.389 31.1246C130.071 32.607 130.362 34.1158 131.209 35.3759C132.045 36.6147 131.717 38.2983 130.473 39.1295C129.235 39.966 127.552 39.6378 126.721 38.3936C125.043 35.9053 124.471 32.914 125.101 29.981C125.731 27.048 127.472 24.5491 130.045 22.9767C134.872 19.9854 141.271 21.2348 144.622 25.8197C147.305 29.4939 147.427 34.5129 144.918 38.3089C144.378 39.1295 144.378 40.1778 144.918 40.9825L146.024 42.6237C146.86 43.8626 146.532 45.5462 145.288 46.3774L145.283 46.388Z" fill="url(#paint5_linear_13939_75375)"/>
<path d="M152.408 50.3957C153.541 52.0793 153.102 54.3664 151.419 55.4994C149.735 56.6324 147.444 56.1824 146.311 54.5041C145.178 52.8205 145.633 50.5387 147.317 49.4057C149 48.2727 151.276 48.7174 152.408 50.401V50.3957Z" fill="url(#paint6_linear_13939_75375)"/>
<path d="M188.609 203.94H123.648V222.82H188.609V203.94Z" fill="url(#paint7_linear_13939_75375)"/>
<path d="M203.869 244.542V233.075C203.869 227.41 199.28 222.814 193.611 222.814H118.641C112.977 222.814 108.383 227.405 108.383 233.075V244.542H203.869Z" fill="url(#paint8_linear_13939_75375)"/>
<defs>
<linearGradient id="paint0_linear_13939_75375" x1="148.673" y1="52.291" x2="163.58" y2="211.272" gradientUnits="userSpaceOnUse">
<stop stop-color="#D6DCE8"/>
<stop offset="1" stop-color="white"/>
</linearGradient>
<linearGradient id="paint1_linear_13939_75375" x1="236.258" y1="85.5923" x2="232.726" y2="24.4328" gradientUnits="userSpaceOnUse">
<stop stop-color="#989FB0"/>
<stop offset="1" stop-color="#AAB2C5"/>
</linearGradient>
<linearGradient id="paint2_linear_13939_75375" x1="208.695" y1="65.7761" x2="261.625" y2="65.7761" gradientUnits="userSpaceOnUse">
<stop stop-color="#D6DCE8"/>
<stop offset="1" stop-color="white"/>
</linearGradient>
<linearGradient id="paint3_linear_13939_75375" x1="229.226" y1="59.4865" x2="241.082" y2="59.4865" gradientUnits="userSpaceOnUse">
<stop stop-color="#989FB0"/>
<stop offset="1" stop-color="#AAB2C5"/>
</linearGradient>
<linearGradient id="paint4_linear_13939_75375" x1="231.187" y1="78.5299" x2="239.111" y2="78.5299" gradientUnits="userSpaceOnUse">
<stop stop-color="#989FB0"/>
<stop offset="1" stop-color="#AAB2C5"/>
</linearGradient>
<linearGradient id="paint5_linear_13939_75375" x1="128.397" y1="40.9613" x2="146.543" y2="28.7483" gradientUnits="userSpaceOnUse">
<stop stop-color="#989FB0"/>
<stop offset="1" stop-color="#AAB2C5"/>
</linearGradient>
<linearGradient id="paint6_linear_13939_75375" x1="146.302" y1="54.5551" x2="152.398" y2="50.4526" gradientUnits="userSpaceOnUse">
<stop stop-color="#989FB0"/>
<stop offset="1" stop-color="#AAB2C5"/>
</linearGradient>
<linearGradient id="paint7_linear_13939_75375" x1="154.967" y1="201.002" x2="157.292" y2="225.753" gradientUnits="userSpaceOnUse">
<stop stop-color="#D6DCE8"/>
<stop offset="1" stop-color="white"/>
</linearGradient>
<linearGradient id="paint8_linear_13939_75375" x1="154.374" y1="244.617" x2="155.422" y2="219.213" gradientUnits="userSpaceOnUse">
<stop stop-color="#D6DCE8"/>
<stop offset="1" stop-color="white"/>
</linearGradient>
</defs>
</svg>
